<?xml version="1.0" encoding="UTF-8" standalone="no"?>
<!-- Created with Inkscape (http://www.inkscape.org/) -->

<svg
   width="2.4226315mm"
   height="2.2715185mm"
   viewBox="0 0 2.4226315 2.2715185"
   version="1.1"
   id="svg1"
   xml:space="preserve"
   xmlns:inkscape="http://www.inkscape.org/namespaces/inkscape"
   xmlns:sodipodi="http://sodipodi.sourceforge.net/DTD/sodipodi-0.dtd"
   xmlns="http://www.w3.org/2000/svg"
   xmlns:svg="http://www.w3.org/2000/svg"><sodipodi:namedview
     id="namedview1"
     pagecolor="#ffffff"
     bordercolor="#000000"
     borderopacity="0.25"
     inkscape:showpageshadow="2"
     inkscape:pageopacity="0.0"
     inkscape:pagecheckerboard="0"
     inkscape:deskcolor="#d1d1d1"
     inkscape:document-units="mm" /><defs
     id="defs1" /><g
     inkscape:groupmode="layer"
     id="layer2"
     inkscape:label="Capa 2"
     style="opacity:1"
     transform="translate(-104.58817,-86.988939)"><g
       id="g18"
       transform="translate(0.0701582,0.00584653)"
       inkscape:export-filename="camara.svg"
       inkscape:export-xdpi="96"
       inkscape:export-ydpi="96"
       style="fill:#ffffff"><g
         id="g14"
         transform="matrix(0.23517862,0,0,0.23517862,86.619859,67.742036)"
         inkscape:label="Camara"
         style="fill:#ffffff"><path
           id="path12"
           style="fill:#ffffff;fill-opacity:1;stroke-width:0.934852;stroke-dasharray:none"
           d="m 81.404337,84.631288 a 2.2142622,2.16175 0 0 0 -2.214198,2.161862 2.2142622,2.16175 0 0 0 2.214198,2.161865 2.2142622,2.16175 0 0 0 2.214159,-2.161865 2.2142622,2.16175 0 0 0 -2.214159,-2.161862 z m 0,0.63004 a 1.5103324,1.5304702 0 0 1 1.509709,1.531822 1.5103324,1.5304702 0 0 1 -1.509709,1.529812 1.5103324,1.5304702 0 0 1 -1.50967,-1.529812 1.5103324,1.5304702 0 0 1 1.50967,-1.531822 z" /></g><path
         id="path17"
         style="fill:#ffffff;fill-opacity:1;stroke-width:0.237602;stroke-dasharray:none"
         d="m 105.72643,86.983092 -0.34072,0.0041 c 0,0 -0.14326,0.0081 -0.18008,0.09823 -0.0368,0.09005 -0.007,0.200547 -0.18419,0.204639 -0.17598,0.0041 -0.4584,0.0041 -0.49112,0.30696 l -0.0123,1.39565 c 0,0 0.004,0.241475 0.27831,0.261939 l 0.93315,-0.0041 v -0.138644 l -0.81856,0.003 c -0.2402,-0.01794 -0.24404,-0.229709 -0.24404,-0.229709 l 0.0107,-1.224262 c 0.0288,-0.265831 0.27637,-0.265637 0.43077,-0.269103 0.15364,-0.0034 0.12929,-0.10056 0.16166,-0.179572 0.0322,-0.07885 0.15809,-0.08646 0.15809,-0.08646 l 0.29877,-0.0034 h 0.005 l 0.29929,0.0034 c 0,0 0.1252,0.0075 0.15757,0.08646 0.0322,0.079 0.006,0.176107 0.16167,0.179572 0.15439,0.0034 0.40266,0.0033 0.43128,0.269103 l 0.0106,1.224262 c 0,0 -0.004,0.21174 -0.24456,0.229709 l -0.81854,-0.003 v 0.138644 l 0.93316,0.0041 c 0.27436,-0.02047 0.27831,-0.261939 0.27831,-0.261939 l -0.0123,-1.39565 c -0.0327,-0.302902 -0.31514,-0.3029 -0.49112,-0.30696 -0.17625,-0.0041 -0.14736,-0.114599 -0.18419,-0.204639 -0.0368,-0.09002 -0.18009,-0.09823 -0.18009,-0.09823 l -0.34071,-0.0041 z" /></g></g></svg>
