<?xml version="1.0" encoding="UTF-8" standalone="no"?>
<!-- Created with Inkscape (http://www.inkscape.org/) -->

<svg
   width="2.9492142mm"
   height="1.8575659mm"
   viewBox="0 0 2.9492142 1.8575659"
   version="1.1"
   id="svg1"
   xml:space="preserve"
   xmlns:inkscape="http://www.inkscape.org/namespaces/inkscape"
   xmlns:sodipodi="http://sodipodi.sourceforge.net/DTD/sodipodi-0.dtd"
   xmlns="http://www.w3.org/2000/svg"
   xmlns:svg="http://www.w3.org/2000/svg"><sodipodi:namedview
     id="namedview1"
     pagecolor="#ffffff"
     bordercolor="#000000"
     borderopacity="0.25"
     inkscape:showpageshadow="2"
     inkscape:pageopacity="0.0"
     inkscape:pagecheckerboard="0"
     inkscape:deskcolor="#d1d1d1"
     inkscape:document-units="mm" /><defs
     id="defs1" /><g
     inkscape:groupmode="layer"
     id="layer2"
     inkscape:label="Capa 2"
     style="opacity:1"
     transform="translate(-70.254751,-93.705751)"><g
       id="g23"
       inkscape:export-filename="comunity-mobile.svg"
       inkscape:export-xdpi="96"
       inkscape:export-ydpi="96"
       style="fill:#6a7780;fill-opacity:1"><ellipse
         style="fill:#6a7780;fill-opacity:1;stroke-width:0.278593;stroke-dasharray:none"
         id="path18"
         cx="71.722145"
         cy="94.183243"
         rx="0.49428636"
         ry="0.47749025" /><ellipse
         style="fill:#6a7780;fill-opacity:1;stroke-width:0.208643;stroke-dasharray:none"
         id="ellipse19"
         cx="72.660507"
         cy="94.385811"
         rx="0.37017983"
         ry="0.35760093" /><ellipse
         style="fill:#6a7780;fill-opacity:1;stroke-width:0.208643;stroke-dasharray:none"
         id="ellipse20"
         cx="70.779488"
         cy="94.381676"
         rx="0.37017983"
         ry="0.35760093" /><path
         style="fill:#6a7780;fill-opacity:1;stroke-width:0.24;stroke-dasharray:none"
         d="m 70.847519,94.897719 c 0,0 -0.740008,-0.115756 -0.566375,0.665593 l 0.549839,-0.0041 c 0,0 -0.285255,-0.268721 0.01654,-0.66146 z"
         id="path20" /><path
         style="fill:#6a7780;fill-opacity:1;stroke-width:0.24;stroke-dasharray:none"
         d="m 72.611203,94.897719 c 0,0 0.740008,-0.115756 0.566375,0.665593 l -0.549839,-0.0041 c 0,0 0.285255,-0.268721 -0.01654,-0.66146 z"
         id="path21" /><path
         id="path22"
         style="fill:#6a7780;fill-opacity:1;stroke-width:0.24;stroke-dasharray:none"
         d="m 71.679673,94.800546 c -0.503642,6.66e-4 -0.623735,0.131775 -0.623735,0.131775 -0.35967,0.297656 -0.121469,0.534982 0,0.612882 0.04,0.02564 0.665593,0.01654 0.665593,0.01654 0,0 0.625595,0.0091 0.665592,-0.01654 0.121469,-0.0779 0.359671,-0.315226 0,-0.612882 0,0 -0.125736,-0.136457 -0.657324,-0.131258 -0.0056,-8.6e-5 -0.011,5.4e-5 -0.01654,0 -0.01125,-1.1e-4 -0.0227,-5.31e-4 -0.03359,-5.17e-4 z" /></g></g></svg>
