<?xml version="1.0" encoding="UTF-8" standalone="no"?>
<!-- Created with Inkscape (http://www.inkscape.org/) -->

<svg
   width="2.1483426mm"
   height="2.1378703mm"
   viewBox="0 0 2.1483426 2.1378703"
   version="1.1"
   id="svg1"
   xml:space="preserve"
   sodipodi:docname="lupa.svg"
   xmlns:inkscape="http://www.inkscape.org/namespaces/inkscape"
   xmlns:sodipodi="http://sodipodi.sourceforge.net/DTD/sodipodi-0.dtd"
   xmlns="http://www.w3.org/2000/svg"
   xmlns:svg="http://www.w3.org/2000/svg"><sodipodi:namedview
     id="namedview1"
     pagecolor="#ffffff"
     bordercolor="#000000"
     borderopacity="0.25"
     inkscape:showpageshadow="2"
     inkscape:pageopacity="0.0"
     inkscape:pagecheckerboard="0"
     inkscape:deskcolor="#d1d1d1"
     inkscape:document-units="mm" /><defs
     id="defs1" /><g
     inkscape:groupmode="layer"
     id="layer2"
     inkscape:label="Capa 2"
     style="opacity:1"
     transform="translate(-110.4919,-87.109804)"><path
       id="path15"
       style="display:inline;opacity:1;fill:#8696a0;fill-opacity:1;stroke-width:0.274608;stroke-dasharray:none"
       d="m 111.32676,87.109801 a 0.83472895,0.83472895 0 0 0 -0.83486,0.834363 0.83472895,0.83472895 0 0 0 0.83486,0.834864 0.83472895,0.83472895 0 0 0 0.43151,-0.120201 l 0.59548,0.567809 c 0,0 0.35951,0.126832 0.27308,-0.242412 l -0.60805,-0.573844 a 0.83472895,0.83472895 0 0 0 0.14285,-0.466216 0.83472895,0.83472895 0 0 0 -0.83487,-0.834363 z m 0,0.321876 a 0.49876718,0.51262183 0 0 1 0.49891,0.512487 0.49876718,0.51262183 0 0 1 -0.49891,0.512988 0.49876718,0.51262183 0 0 1 -0.49891,-0.512988 0.49876718,0.51262183 0 0 1 0.49891,-0.512487 z"
       inkscape:label="Lupa"
       inkscape:export-filename="lupa.svg"
       inkscape:export-xdpi="96"
       inkscape:export-ydpi="96" /></g></svg>
