<?xml version="1.0" encoding="UTF-8" standalone="no"?>
<!-- Created with Inkscape (http://www.inkscape.org/) -->

<svg
   width="2.731051mm"
   height="1.8026356mm"
   viewBox="0 0 2.731051 1.8026356"
   version="1.1"
   id="svg1"
   xml:space="preserve"
   xmlns:inkscape="http://www.inkscape.org/namespaces/inkscape"
   xmlns:sodipodi="http://sodipodi.sourceforge.net/DTD/sodipodi-0.dtd"
   xmlns="http://www.w3.org/2000/svg"
   xmlns:svg="http://www.w3.org/2000/svg"><sodipodi:namedview
     id="namedview1"
     pagecolor="#ffffff"
     bordercolor="#000000"
     borderopacity="0.25"
     inkscape:showpageshadow="2"
     inkscape:pageopacity="0.0"
     inkscape:pagecheckerboard="0"
     inkscape:deskcolor="#d1d1d1"
     inkscape:document-units="mm" /><defs
     id="defs1" /><g
     inkscape:groupmode="layer"
     id="layer2"
     inkscape:label="Capa 2"
     style="opacity:1"
     transform="translate(-121.18211,-178.2458)"><path
       id="path25"
       style="fill:#131e24;fill-opacity:1;stroke-width:0.24;stroke-dasharray:none"
       d="m 121.39523,178.24624 c -0.0869,0.002 -0.22444,0.0356 -0.21239,0.23254 l 5.2e-4,5.2e-4 0.0176,1.38544 c 0,0 -0.006,0.13458 0.14004,0.16382 0.14616,0.0292 1.8185,0.0176 1.8185,0.0176 0,0 0.18674,0.0174 0.19844,-0.18139 0.0117,-0.19879 -0.006,-1.03508 -0.006,-1.03508 l 0.56121,-0.56689 -2.44947,-0.0119 c 0,0 -0.0292,-0.006 -0.0687,-0.005 z m 0.31936,0.56999 h 1.11415 c 0.0577,0 0.10387,0.0448 0.10387,0.10025 v 0.11007 c 0,0.0554 -0.0461,0.0997 -0.10387,0.0997 h -1.11415 c -0.0577,0 -0.10438,-0.0443 -0.10438,-0.0997 v -0.11007 c 0,-0.0554 0.0466,-0.10025 0.10438,-0.10025 z m -0.0114,0.42168 h 0.95033 c 0.0493,0 0.0889,0.0448 0.0889,0.10025 v 0.11007 c 0,0.0554 -0.0396,0.0997 -0.0889,0.0997 h -0.95033 c -0.0493,0 -0.0889,-0.0443 -0.0889,-0.0997 v -0.11007 c 0,-0.0554 0.0396,-0.10025 0.0889,-0.10025 z" /></g></svg>
