<?xml version="1.0" encoding="UTF-8" standalone="no"?>
<!-- Created with Inkscape (http://www.inkscape.org/) -->

<svg
   width="4.2755384mm"
   height="6.0755014mm"
   viewBox="0 0 4.2755384 6.0755014"
   version="1.1"
   id="svg1"
   xml:space="preserve"
   xmlns:inkscape="http://www.inkscape.org/namespaces/inkscape"
   xmlns:sodipodi="http://sodipodi.sourceforge.net/DTD/sodipodi-0.dtd"
   xmlns="http://www.w3.org/2000/svg"
   xmlns:svg="http://www.w3.org/2000/svg"><sodipodi:namedview
     id="namedview1"
     pagecolor="#ffffff"
     bordercolor="#000000"
     borderopacity="0.25"
     inkscape:showpageshadow="2"
     inkscape:pageopacity="0.0"
     inkscape:pagecheckerboard="0"
     inkscape:deskcolor="#d1d1d1"
     inkscape:document-units="mm" /><defs
     id="defs1" /><g
     inkscape:label="Capa 1"
     inkscape:groupmode="layer"
     id="layer1"
     transform="translate(-128.03318,-87.980771)"><g
       id="g97"
       transform="translate(-49.642448,20.935156)"><path
         id="path94"
         style="fill:#aebac1;fill-opacity:1;stroke:none;stroke-width:0.155381;stroke-linejoin:round;stroke-dasharray:none;stroke-opacity:1"
         d="m 177.92816,69.847933 a 0.25424802,0.24287923 0 0 0 -0.24753,0.189136 2.1376061,2.0037751 0 0 0 -0.005,0.06408 2.1376061,2.0037751 0 0 0 0.003,0.03307 2.1376061,2.0037751 0 0 0 1.88361,1.95492 v 1.031978 h 0.50281 V 72.08914 a 2.1376061,2.0037751 0 0 0 1.88412,-1.963705 2.1376061,2.0037751 0 0 0 0.002,-0.02429 2.1376061,2.0037751 0 0 0 -10e-4,-0.03772 0.25166422,0.24287923 0 0 0 -0.25011,-0.215491 0.25166422,0.24287923 0 0 0 -0.25011,0.221175 1.6376061,1.5350791 0 0 1 0.001,0.03204 1.6376061,1.5350791 0 0 1 -0.001,0.01137 1.6376061,1.5350791 0 0 1 -1.63608,1.523421 1.6376061,1.5350791 0 0 1 -1.63504,-1.505334 1.6376061,1.5350791 0 0 1 -0.003,-0.02946 1.6376061,1.5350791 0 0 1 0.004,-0.04237 0.25424802,0.24287923 0 0 0 -0.25166,-0.21084 z" /><path
         id="path91"
         style="display:inline;fill:#aebac1;fill-opacity:1;stroke:none;stroke-width:0.0962139;stroke-linejoin:round;stroke-dasharray:none;stroke-opacity:1"
         d="m 179.82277,67.045652 a 1.1244792,0.92604166 0 0 0 -1.12086,0.886251 h -0.005 l 0.006,2.000395 a 1.1244792,0.92604166 0 0 0 -0.005,0.05684 1.1244792,0.92604166 0 0 0 1.12448,0.926041 1.1244792,0.92604166 0 0 0 1.12448,-0.926041 1.1244792,0.92604166 0 0 0 -0.005,-0.08578 1.1244792,0.92604166 0 0 0 0,-0.0021 l -0.005,-1.809709 a 1.1244792,0.92604166 0 0 0 0.0103,-0.119889 1.1244792,0.92604166 0 0 0 -1.12448,-0.926042 z" /></g></g></svg>
